<svg width="108" height="64" viewBox="0 0 108 64" fill="none" xmlns="http://www.w3.org/2000/svg">
<path d="M29.6843 28.1104H37.9719V29.9861H31.8201V32.1818H37.5626V34.0568H31.8201V36.3267H38.0386V38.2025H29.6843V28.1104Z" fill="#333333"/>
<path d="M43.6817 33.9378H42.7071V38.2025H40.5781V28.1104H42.7071V32.3303H43.5703L47.5963 28.1104H50.2686L45.9819 32.3599L45.3862 32.9108L46.0183 33.4914L50.6923 38.2025H47.8198L43.6817 33.9378Z" fill="#333333"/>
<path d="M66.1758 33.9378H65.201V38.2025H63.0723V28.1104H65.201V32.3303H66.0644L70.09 28.1104H72.7627L68.4757 32.3599L67.88 32.9108L68.5121 33.4914L73.1862 38.2025H70.314L66.1758 33.9378Z" fill="#333333"/>
<path d="M27.6285 29.9861H23.8435V38.2025H21.707V29.9861H17.9297V28.1104H27.6285V29.9861Z" fill="#333333"/>
<path d="M95.2846 28.1104L92.235 32.7691L91.6848 33.6551H91.6171L91.0669 32.7691L88.0173 28.1104H85.9688V38.2025H88.0992V33.0518L87.9582 31.361H88.0031L88.6204 32.472L91.3204 36.4009H91.9826L94.6815 32.472L95.3 31.361H95.3437L95.2027 33.0518V38.2025H97.3343V28.1104H95.2846Z" fill="#333333"/>
<mask id="mask0_2001_5" style="mask-type:luminance" maskUnits="userSpaceOnUse" x="0" y="0" width="127" height="65">
<path d="M0 0H126.041V64.2566H0V0Z" fill="white"/>
</mask>
<g mask="url(#mask0_2001_5)">
<path d="M78.491 36.5186C76.6794 36.5186 75.3925 35.0105 75.3925 33.1566C75.3925 31.302 76.6794 29.7938 78.491 29.7938C80.3019 29.7938 81.5888 31.302 81.5888 33.1566C81.5888 35.0105 80.3019 36.5186 78.491 36.5186ZM78.491 27.9165C75.4743 27.9165 73.1887 30.2668 73.1887 33.1566C73.1887 36.0457 75.4886 38.396 78.491 38.396C81.4928 38.396 83.7932 36.0457 83.7932 33.1566C83.7932 30.2668 81.507 27.9165 78.491 27.9165Z" fill="#333333"/>
</g>
</svg>
