<svg width="51" height="51" viewBox="0 0 51 51" fill="none" xmlns="http://www.w3.org/2000/svg">
<path d="M28.9617 4.0697C28.9617 5.81287 27.5482 7.22631 25.8051 7.22631C24.0611 7.22631 22.6484 5.81287 22.6484 4.0697C22.6484 2.32652 24.0611 0.913086 25.8051 0.913086C27.5482 0.913086 28.9617 2.32652 28.9617 4.0697Z" fill="#DB2830"/>
<path d="M29.1036 47.8344C29.1036 49.5775 27.6901 50.9912 25.9469 50.9912C24.203 50.9912 22.7903 49.5775 22.7903 47.8344C22.7903 46.0912 24.203 44.6777 25.9469 44.6777C27.6901 44.6777 29.1036 46.0912 29.1036 47.8344Z" fill="#DB2830"/>
<path d="M44.5642 10.4672C44.5642 12.2103 43.1508 13.6238 41.4076 13.6238C39.6637 13.6238 38.251 12.2103 38.251 10.4672C38.251 8.72404 39.6637 7.31055 41.4076 7.31055C43.1508 7.31055 44.5642 8.72404 44.5642 10.4672Z" fill="#DB2830"/>
<path d="M50.9519 25.9271C50.9519 27.6703 49.5382 29.0837 47.7953 29.0837C46.0514 29.0837 44.6387 27.6703 44.6387 25.9271C44.6387 24.1839 46.0514 22.7705 47.7953 22.7705C49.5382 22.7705 50.9519 24.1839 50.9519 25.9271Z" fill="#DB2830"/>
<path d="M44.5887 41.3739C44.5887 43.1171 43.1752 44.5305 41.4321 44.5305C39.6881 44.5305 38.2754 43.1171 38.2754 41.3739C38.2754 39.6307 39.6881 38.2173 41.4321 38.2173C43.1752 38.2173 44.5887 39.6307 44.5887 41.3739Z" fill="#DB2830"/>
<path d="M7.3125 10.4672C7.3125 12.2103 8.72599 13.6238 10.4691 13.6238C12.213 13.6238 13.6258 12.2103 13.6258 10.4672C13.6258 8.72404 12.213 7.31055 10.4691 7.31055C8.72599 7.31055 7.3125 8.72404 7.3125 10.4672Z" fill="#DB2830"/>
<path d="M0.923828 25.9273C0.923828 27.669 2.33726 29.0817 4.08044 29.0817C5.82436 29.0817 7.23705 27.669 7.23705 25.9273C7.23705 24.1857 5.82436 22.7729 4.08044 22.7729C2.33726 22.7729 0.923828 24.1857 0.923828 25.9273Z" fill="#DB2830"/>
<path d="M7.28711 41.3739C7.28711 43.1171 8.7006 44.5305 10.4438 44.5305C12.1877 44.5305 13.6004 43.1171 13.6004 41.3739C13.6004 39.6307 12.1877 38.2173 10.4438 38.2173C8.7006 38.2173 7.28711 39.6307 7.28711 41.3739Z" fill="#DB2830"/>
</svg>
