<svg width="224" height="127" viewBox="0 0 224 127" fill="none" xmlns="http://www.w3.org/2000/svg">
<path d="M52.6 51.2002H73.6V56.0002H58V61.6002H72.5V66.4002H58V72.2002H73.8V77.0002H52.6V51.2002Z" fill="white"/>
<path d="M88.1 65.9002H85.6V76.7002H80.2V51.2002H85.6V61.9002H87.8L98 51.2002H104.8L93.8999 62.0002L92.3999 63.4002L94 64.9002L105.8 76.8002H98.5L88.1 65.9002Z" fill="white"/>
<path d="M145 65.9002H142.5V76.7002H137.1V51.2002H142.5V61.9002H144.7L155 51.2002H161.8L150.9 62.0002L149.4 63.4002L151 64.9002L162.8 76.8002H155.5L145 65.9002Z" fill="white"/>
<path d="M47.4 55.9001H37.8V76.7001H32.4V55.9001H22.8V51.1001H47.4V55.9001Z" fill="white"/>
<path d="M218.8 51.2002L211.1 63.0002L209.7 65.2002H209.5L208.1 63.0002L200.4 51.2002H195.2V76.7002H200.6V63.7002L200.2 59.4002H200.3L201.9 62.2002L208.8 72.2002H210.4L217.3 62.2002L218.8 59.4002H218.9L218.6 63.7002V76.7002H224V51.2002H218.8Z" fill="white"/>
<path d="M176.2 50.7002C168.6 50.7002 162.8 56.7002 162.8 64.0002C162.8 71.3002 168.6 77.3002 176.2 77.3002C183.8 77.3002 189.6 71.3002 189.6 64.0002C189.7 56.6002 183.9 50.7002 176.2 50.7002ZM176.2 72.5002C171.6 72.5002 168.3 68.7002 168.3 64.0002C168.3 59.3002 171.6 55.5002 176.2 55.5002C180.8 55.5002 184.1 59.3002 184.1 64.0002C184.1 68.6002 180.8 72.5002 176.2 72.5002Z" fill="white"/>
<path d="M63 16C67.4183 16 71 12.4183 71 8C71 3.58172 67.4183 0 63 0C58.5817 0 55 3.58172 55 8C55 12.4183 58.5817 16 63 16Z" fill="#E50A0B"/>
<path d="M63.4 126.9C67.8183 126.9 71.4 123.318 71.4 118.9C71.4 114.482 67.8183 110.9 63.4 110.9C58.9817 110.9 55.4 114.482 55.4 118.9C55.4 123.318 58.9817 126.9 63.4 126.9Z" fill="#E50A0B"/>
<path d="M102.6 32.2002C107.018 32.2002 110.6 28.6185 110.6 24.2002C110.6 19.7819 107.018 16.2002 102.6 16.2002C98.1817 16.2002 94.6 19.7819 94.6 24.2002C94.6 28.6185 98.1817 32.2002 102.6 32.2002Z" fill="#E50A0B"/>
<path d="M118.7 71.3999C123.118 71.3999 126.7 67.8182 126.7 63.3999C126.7 58.9816 123.118 55.3999 118.7 55.3999C114.282 55.3999 110.7 58.9816 110.7 63.3999C110.7 67.8182 114.282 71.3999 118.7 71.3999Z" fill="#E50A0B"/>
<path d="M102.6 110.5C107.018 110.5 110.6 106.918 110.6 102.5C110.6 98.0817 107.018 94.5 102.6 94.5C98.1817 94.5 94.6 98.0817 94.6 102.5C94.6 106.918 98.1817 110.5 102.6 110.5Z" fill="#E50A0B"/>
<path d="M24.2 32.2002C28.6182 32.2002 32.2 28.6185 32.2 24.2002C32.2 19.7819 28.6182 16.2002 24.2 16.2002C19.7817 16.2002 16.2 19.7819 16.2 24.2002C16.2 28.6185 19.7817 32.2002 24.2 32.2002Z" fill="#E50A0B"/>
<path d="M8 71.3999C12.4183 71.3999 16 67.8182 16 63.3999C16 58.9816 12.4183 55.3999 8 55.3999C3.58172 55.3999 0 58.9816 0 63.3999C0 67.8182 3.58172 71.3999 8 71.3999Z" fill="#E50A0B"/>
<path d="M24.1 110.5C28.5183 110.5 32.1 106.918 32.1 102.5C32.1 98.0817 28.5183 94.5 24.1 94.5C19.6817 94.5 16.1 98.0817 16.1 102.5C16.1 106.918 19.6817 110.5 24.1 110.5Z" fill="#E50A0B"/>
</svg>
